<svg width="20" height="24" viewBox="0 0 20 24" fill="none" xmlns="http://www.w3.org/2000/svg">
<path fill-rule="evenodd" clip-rule="evenodd" d="M18.4808 8.13889C18.8378 8.65931 18.7307 9.36732 18.2357 9.75886C18.2112 9.77827 18.1753 9.80343 18.1306 9.8348C17.7203 10.1228 16.5638 10.9344 16.5638 12.6285C16.5638 13.725 17.0231 14.4357 17.4936 14.8969C17.8908 15.2862 18.2838 15.4817 18.3783 15.5288C18.4033 15.5412 18.4074 15.5433 18.3851 15.5357C18.955 15.7284 19.2941 16.3132 19.1783 16.9035C19.1487 17.0544 19.0103 17.5016 18.783 18.0505C18.543 18.6297 18.173 19.3984 17.6458 20.1814L17.6415 20.1877L17.6415 20.1877C17.2322 20.7873 16.7324 21.5133 16.1293 22.0793C15.5051 22.665 14.6717 23.1738 13.5931 23.1738C12.69 23.1738 12.0769 22.9006 11.6362 22.7042C11.6143 22.6944 11.5928 22.6849 11.5718 22.6755C11.1779 22.5009 10.8899 22.3832 10.3702 22.3832C9.86898 22.3832 9.54274 22.5071 9.10877 22.6938C9.07879 22.7067 9.04778 22.7202 9.01574 22.7341C8.57717 22.9249 7.94512 23.1998 7.10901 23.1998C6.08003 23.1998 5.281 22.7062 4.66708 22.1283C4.0739 21.5699 3.54789 20.8314 3.06895 20.1479L3.0634 20.1399L3.06343 20.1399C1.80268 18.3093 0.800781 15.5212 0.800781 12.8358C0.800781 8.37362 3.7364 5.68624 6.93066 5.68624C7.61574 5.68624 8.23286 5.8599 8.72826 6.04008C8.78473 4.71078 9.43725 3.49907 10.0954 2.73615C10.9892 1.68342 12.4703 0.854831 13.852 0.800734C14.4331 0.77798 14.9469 1.17523 15.0712 1.74338C15.1198 1.96544 15.1371 2.19757 15.1371 2.40167C15.1371 3.6027 14.6911 4.75922 14.0518 5.6491C15.0518 5.71649 17.075 6.08966 18.4808 8.13889ZM12.8925 5.18845C13.3429 4.64425 13.6965 3.94535 13.8516 3.2057C13.8873 3.03537 13.9125 2.86288 13.9259 2.68962C13.9333 2.59379 13.9371 2.49773 13.9371 2.40167C13.9371 2.2591 13.9244 2.11653 13.8989 1.99982C13.5624 2.01299 13.2039 2.09456 12.8493 2.22942C12.8094 2.24457 12.7696 2.2604 12.7299 2.27688C12.0795 2.54674 11.4518 2.99129 11.0071 3.51638C10.4467 4.16447 9.92431 5.18845 9.92431 6.22547C9.92431 6.33298 9.93651 6.44056 9.94825 6.51384C9.95348 6.54655 9.95863 6.57243 9.96255 6.58842C10.0046 6.59697 10.0635 6.60558 10.1281 6.61042C10.1611 6.6129 10.1956 6.6144 10.2301 6.6144C10.8748 6.61431 11.6393 6.29585 12.259 5.8108C12.4964 5.62496 12.7126 5.41466 12.8925 5.18845ZM12.7731 6.92305C12.2423 7.03372 11.7565 7.22968 11.3253 7.40358C10.9055 7.5729 10.5375 7.72132 10.2302 7.7498C10.2302 7.7498 10.2301 7.74981 10.2301 7.74981C10.1953 7.75303 10.1613 7.75471 10.1281 7.75471C10.0038 7.75471 9.87326 7.73452 9.73671 7.70031C9.57027 7.6586 9.39487 7.59605 9.21082 7.52379C9.1081 7.48347 9.00269 7.44012 8.89465 7.3957C8.31334 7.15665 7.65574 6.88624 6.93066 6.88624C4.4849 6.88624 2.00078 8.94723 2.00078 12.8358C2.00078 15.2596 2.91796 17.8131 4.05172 19.4593C5.03254 20.8591 5.88607 21.9998 7.10901 21.9998C7.68897 21.9998 8.11423 21.8162 8.5614 21.623C9.05717 21.4089 9.57987 21.1832 10.3702 21.1832C11.1682 21.1832 11.6453 21.3951 12.1055 21.5995C12.5341 21.7899 12.9481 21.9738 13.5931 21.9738C14.9307 21.9738 15.8097 20.7425 16.6504 19.5111C17.0622 18.8996 17.3695 18.2931 17.586 17.7984C17.6603 17.6289 17.7238 17.4725 17.7773 17.3335C17.9249 16.9499 17.9955 16.6993 18.0008 16.6725C17.9243 16.6467 15.3638 15.5967 15.3638 12.6285C15.3638 10.4825 16.7711 9.32439 17.2992 8.94944C17.3568 8.90859 17.4039 8.87704 17.4376 8.85452C17.439 8.85362 17.4403 8.85273 17.4416 8.85186C17.4663 8.83532 17.4833 8.82398 17.4913 8.81771C17.3606 8.62725 17.2232 8.45507 17.0813 8.29941C16.9522 8.15797 16.8194 8.03018 16.6843 7.91471C15.4601 6.86876 14.0481 6.83451 13.593 6.8344C13.3095 6.8344 13.0358 6.86829 12.7731 6.92305Z" fill="black"/>
</svg>
