<svg width="25" height="18" viewBox="0 0 25 18" fill="none" xmlns="http://www.w3.org/2000/svg">
<path d="M21.9149 14.5288C21.5498 16.2617 20.1591 17.2361 18.7423 17.2731C17.507 17.3047 15.9053 16.569 15.401 14.5288H15.0748C12.6655 14.5288 11.601 14.5329 9.19229 14.5228C8.92735 14.5228 8.82446 14.594 8.75991 14.859C8.42772 16.2173 7.14605 17.2179 5.70097 17.2737C4.34129 17.3255 2.99439 16.4137 2.54049 15.1313C2.32665 14.5261 2.32665 14.5261 1.69254 14.5261H0.83383C0.161388 14.5261 0 14.3674 0 13.7044V3.97753C0 2.91596 0 1.85417 0 0.792164C0 0.186966 0.171473 0.00809796 0.764567 0.00809796C5.36609 0.00809796 8.6234 0.0202002 13.2249 2.6928e-05C14.6794 -0.00602505 15.8999 1.00869 16.0613 2.39056C16.0868 2.61045 16.2166 2.60372 16.3713 2.60372C17.0794 2.60372 17.7874 2.61045 18.4955 2.60372C19.5775 2.59028 20.4106 3.03072 21.0017 3.93785C21.2754 4.35813 21.5726 4.76428 21.8349 5.19263C22.4165 6.16101 23.1449 7.03324 23.9941 7.77817C24.682 8.37597 24.9792 9.15062 24.9685 10.0611C24.955 11.2829 24.9685 12.5048 24.9651 13.7266C24.9651 14.3654 24.7983 14.5295 24.1481 14.5335C23.4077 14.5295 22.6674 14.5288 21.9149 14.5288ZM23.865 13.428V10.86C23.865 9.15667 23.865 9.16004 22.6371 7.97923C22.5627 7.90338 22.473 7.84419 22.374 7.80559C22.275 7.76698 22.169 7.74985 22.0628 7.75531C19.9736 7.76338 17.8843 7.76069 15.795 7.76001C15.1622 7.76001 15.0042 7.60199 15.0035 6.97056C15.0035 5.62568 15.0035 4.27609 15.0035 2.92851C14.9995 1.7551 14.3519 1.11292 13.1772 1.11292C8.82715 1.11292 5.82268 1.11292 1.47265 1.11292C1.35296 1.11292 1.23326 1.12368 1.125 1.12906V13.4206H2.36028C2.81014 11.6501 4.07568 10.7665 5.44208 10.7356C7.27919 10.6939 8.3793 11.7019 8.8675 13.43H15.4137C15.8535 11.8041 16.8722 10.7786 18.5742 10.7403C20.373 10.6993 21.457 11.7301 21.9209 13.43L23.865 13.428ZM18.7154 11.8182C17.5353 11.7799 16.53 12.7361 16.4775 13.9445C16.4278 15.1091 17.4068 16.1306 18.6139 16.1743C19.7907 16.2167 20.8 15.2537 20.8464 14.0453C20.8928 12.8665 19.9272 11.8572 18.7168 11.8182H18.7154ZM3.42273 14.0043C3.42979 14.5814 3.66349 15.1325 4.07337 15.5387C4.48326 15.945 5.03646 16.1737 5.61355 16.1756C6.80781 16.1696 7.80033 15.167 7.78689 13.9855C7.78439 13.4068 7.5521 12.8527 7.14111 12.4453C6.73013 12.0378 6.17412 11.8103 5.59539 11.8128C5.01667 11.8153 4.46265 12.0476 4.05519 12.4586C3.64774 12.8696 3.42024 13.4256 3.42273 14.0043ZM21.5114 6.64914C20.9365 5.81262 20.4288 5.01376 19.8512 4.26869C19.6595 4.02123 19.2971 3.78386 18.9985 3.76369C18.0484 3.69981 17.0915 3.74015 16.1178 3.74015V6.64914H21.5114Z" fill="black"/>
<path d="M8.57253 7.25117C7.20433 7.25117 5.83703 7.25117 4.47063 7.25117C4.32273 7.25647 4.17472 7.24473 4.02951 7.2162C3.91594 7.18912 3.81452 7.12525 3.74104 7.03453C3.66755 6.94382 3.62613 6.83135 3.62321 6.71464C3.6203 6.59793 3.65605 6.48353 3.72492 6.38926C3.79378 6.29499 3.89188 6.22613 4.00395 6.19341C4.14738 6.15725 4.29525 6.14185 4.44305 6.14769C7.20007 6.14769 8.61691 6.14769 11.3766 6.14769C11.9361 6.14769 12.203 6.32185 12.2151 6.68968C12.2272 7.0575 11.9462 7.25453 11.3692 7.25453L8.57253 7.25117Z" fill="black"/>
<path d="M9.31007 4.47446C8.57038 4.47446 9.17558 4.47782 8.43589 4.47446C8.00956 4.47446 7.74731 4.25323 7.75403 3.92238C7.76076 3.60432 8.01696 3.38914 8.42043 3.38779C9.91258 3.38376 10.0598 3.38376 11.552 3.38779C11.9649 3.38779 12.2076 3.59625 12.2137 3.92575C12.2191 4.26735 11.9716 4.47379 11.5332 4.47648C10.7908 4.47782 10.0504 4.47446 9.31007 4.47446Z" fill="black"/>
<path d="M10.0126 9.19819C10.5364 9.19819 11.0603 9.19281 11.5841 9.19819C11.9613 9.2029 12.2054 9.41875 12.2142 9.73278C12.2229 10.0468 11.9916 10.2862 11.609 10.2896C10.5492 10.2997 10.8343 10.299 9.77521 10.2896C9.39058 10.2862 9.16464 10.0609 9.17002 9.73749C9.1754 9.41404 9.40873 9.20357 9.78866 9.19954C10.3071 9.19281 9.48607 9.19819 10.0126 9.19819Z" fill="black"/>
</svg>
