<svg width="26" height="22" viewBox="0 0 26 22" fill="none" xmlns="http://www.w3.org/2000/svg">
<path d="M5.38895 18.3657C5.00364 19.1465 4.37558 19.408 3.55722 19.3798C2.62858 19.3468 1.69724 19.3731 0.767255 19.3717C0.173488 19.3717 0 19.2023 0 18.6193C0 15.8847 0 13.1501 0 10.4155C0 9.81026 0.252836 9.62131 0.850637 9.74302C2.1229 9.99989 3.39516 10.2608 4.67213 10.4968C5.4024 10.6313 5.99146 10.9238 6.24497 11.679L8.6039 11.2836V10.9339C8.6039 9.01745 8.59516 7.10099 8.61264 5.1852C8.61767 4.88637 8.68765 4.59221 8.81773 4.32313C9.46193 3.01859 10.1391 1.73019 10.7961 0.431708C10.9433 0.139868 11.1477 0 11.4826 0C15.3039 0.00627613 19.1252 0.00627613 22.9464 0C23.2658 0 23.475 0.122385 23.6189 0.403465C24.3088 1.76045 25.0095 3.11274 25.692 4.47309C25.7769 4.6547 25.8203 4.85293 25.8191 5.05341C25.8258 8.86346 25.8191 12.6735 25.8292 16.4849C25.8292 16.8561 25.7061 17.0948 25.3625 17.2515C22.8792 18.3846 20.4113 19.554 17.9118 20.6514C17.0989 21.0084 16.2139 21.2109 15.3498 21.4381C14.4858 21.6654 13.6109 21.4745 12.765 21.2458C10.4235 20.611 8.20245 19.6595 6.00491 18.6468C5.81057 18.5554 5.61624 18.4686 5.38895 18.3657ZM18.275 15.4023C19.172 15.1871 20.0374 14.9686 20.9076 14.7729C21.8403 14.5638 22.7797 14.403 23.7318 14.6653C24.0627 14.7568 24.3854 14.8731 24.7203 14.9807V5.41316H20.4463V5.79713C20.4463 6.50319 20.4463 7.20926 20.4463 7.91398C20.4463 8.41226 20.2445 8.61533 19.7604 8.61601C18.0569 8.61959 16.3534 8.61959 14.6498 8.61601C14.1906 8.61601 13.9922 8.41898 13.9881 7.96172C13.9821 7.23414 13.9881 6.50588 13.9881 5.7783V5.41921H9.70402V11.2479C10.5109 11.5748 11.2594 11.8928 12.0186 12.182C12.7172 12.4469 13.4206 12.7018 14.1341 12.9217C14.8173 13.1321 15.5287 13.2579 16.2038 13.4845C17.1553 13.81 18.0436 14.243 18.275 15.4023ZM24.719 16.3437C24.4628 16.1655 24.2826 15.9974 24.0701 15.8999C23.4857 15.629 22.833 15.5418 22.198 15.6498C21.3164 15.7984 20.4422 15.9954 19.5755 16.2025C18.9669 16.3471 18.322 16.4513 17.7814 16.7405C17.1056 17.1009 16.4184 17.2273 15.6854 17.2206C14.4225 17.2085 13.1974 16.9355 11.9789 16.6403C11.3488 16.4869 10.7241 16.3087 10.1014 16.1272C9.79211 16.0371 9.63543 15.7526 9.71007 15.4796C9.78874 15.1925 10.0396 15.0432 10.3637 15.095C10.4518 15.1091 10.5385 15.134 10.6253 15.1548C11.7893 15.4319 12.9485 15.7271 14.1179 15.9786C14.9302 16.1534 15.762 16.2348 16.5858 16.0714C16.809 16.027 17.0942 15.8643 17.1836 15.6767C17.3087 15.4151 17.074 15.179 16.8595 15.0042C16.7937 14.9434 16.7188 14.8933 16.6376 14.8556C16.1393 14.6599 15.6491 14.4333 15.136 14.2901C14.0278 13.9821 12.884 13.8032 11.833 13.2969C11.2493 13.0158 10.6636 12.7139 10.0456 12.535C8.81437 12.1779 7.60532 12.5 6.41039 12.8087C6.32096 12.8322 6.22345 12.9943 6.20866 13.1039C6.01567 14.399 5.84151 15.6968 5.64986 16.9926C5.61825 17.2044 5.67071 17.3026 5.86975 17.3961C8.04644 18.4148 10.2507 19.3758 12.5592 20.0724C13.393 20.3232 14.247 20.5976 15.13 20.375C15.9631 20.1645 16.8077 19.9547 17.5951 19.6225C19.3569 18.8829 21.0918 18.0645 22.8287 17.269C23.4353 16.9906 24.0284 16.6826 24.719 16.3444V16.3437ZM1.10079 18.2999C1.96622 18.2999 2.794 18.2999 3.6211 18.2999C4.25656 18.2999 4.39979 18.1795 4.49057 17.542C4.73937 15.8049 4.98593 14.067 5.23026 12.3286C5.28405 11.9493 5.14082 11.7234 4.76896 11.6353C4.3971 11.5472 4.00439 11.4712 3.6211 11.3939C2.78996 11.2271 1.95949 11.063 1.1028 10.8929L1.10079 18.2999ZM14.9094 1.08532C13.8496 1.08532 12.8329 1.08129 11.8162 1.09406C11.7368 1.09406 11.6299 1.1956 11.5855 1.27764C11.3253 1.75978 11.0785 2.24865 10.8297 2.73684C10.5694 3.24924 10.3119 3.76232 10.0416 4.2996H14.1085C14.3735 3.23512 14.6364 2.17737 14.9094 1.08465V1.08532ZM20.3226 4.29624H24.368C24.3509 4.23743 24.3302 4.17972 24.3061 4.12342C23.8199 3.16586 23.3371 2.20628 22.8368 1.25679C22.7904 1.1687 22.6351 1.09675 22.5221 1.09272C22.0635 1.07456 21.6042 1.08532 21.145 1.08532H19.5203C19.794 2.18073 20.0569 3.23176 20.3226 4.29556V4.29624ZM15.2201 4.29287H19.209C18.94 3.21159 18.671 2.15316 18.4101 1.10146H16.0189L15.2201 4.29287ZM15.0856 5.40375V7.52194H19.3435V5.40308L15.0856 5.40375Z" fill="black"/>
</svg>
