<svg width="22" height="25" viewBox="0 0 22 25" fill="none" xmlns="http://www.w3.org/2000/svg">
<path d="M21.0323 20.6085C20.9906 20.5412 20.9489 20.474 20.9099 20.4067L19.1165 17.331C19.8246 16.8058 20.0404 16.3418 19.998 15.471C19.9863 15.148 19.9519 14.8262 19.8952 14.5081C19.7358 13.6843 19.9254 13.0637 20.4923 12.5539C20.7892 12.2746 21.0579 11.9667 21.2945 11.6347C21.895 10.8217 21.893 10.0599 21.2878 9.23679C21.0675 8.92168 20.8151 8.6303 20.5347 8.36732C19.9463 7.84483 19.7466 7.19458 19.9073 6.3204C19.9876 5.84791 20.0102 5.36739 19.9745 4.88945C19.9342 4.20893 19.5657 3.70998 18.9376 3.48404C18.4349 3.3034 17.9174 3.16683 17.391 3.07587C16.6614 2.95079 16.2014 2.62466 15.8995 2.01879C15.6609 1.53849 15.3746 1.08342 15.0448 0.660456C14.5856 0.0720687 13.9535 -0.132354 13.2635 0.0841722C12.7638 0.239909 12.277 0.434618 11.8077 0.666507C11.1527 0.993315 10.561 0.992642 9.94571 0.666507C9.61812 0.497096 9.28138 0.346012 8.93704 0.213954C7.86114 -0.215065 7.06765 0.035084 6.43824 1.00004C6.20824 1.34639 5.99983 1.70661 5.81422 2.07864C5.54053 2.63542 5.08865 2.95752 4.43235 3.06242C4.06184 3.12159 3.67518 3.20229 3.28314 3.30181C2.20723 3.57549 1.7029 4.24794 1.74728 5.35612C1.76427 5.79629 1.80919 6.23493 1.88177 6.6694C1.97861 7.24165 1.8347 7.70698 1.42855 8.13398C1.08651 8.48056 0.76519 8.84701 0.466279 9.23141C-0.151024 10.0531 -0.155056 10.7901 0.45216 11.6226C0.664706 11.9288 0.909286 12.2115 1.18176 12.4659C1.82932 13.0388 2.04383 13.7361 1.83672 14.5968C1.82095 14.6583 1.80928 14.7207 1.80176 14.7838C1.7056 15.7306 1.60675 16.7083 2.6255 17.3155L2.606 17.3525C2.56498 17.4298 2.53 17.4971 2.49235 17.5623L2.33164 17.8407C1.71972 18.9031 1.08627 20.0012 0.460229 21.0805L0.455526 21.0886C0.337848 21.2903 0.160997 21.5969 0.448803 21.8148C0.651361 21.9481 0.898186 21.9964 1.13604 21.9493C1.63095 21.8384 2.12856 21.7012 2.60869 21.5687C2.81042 21.5122 3.01753 21.4557 3.22263 21.4013C3.48286 21.334 3.74444 21.2668 4.0114 21.1955L4.28576 21.1242C4.35659 21.3847 4.42629 21.6427 4.49488 21.8982C4.71545 22.7159 4.9239 23.4885 5.13101 24.2753C5.17136 24.4286 5.27963 24.8361 5.65149 24.8011C5.86802 24.7803 6.10404 24.592 6.20625 24.4212C6.60031 23.7629 6.99032 23.0871 7.36756 22.4341C7.61569 22.0038 7.87189 21.56 8.12742 21.1236C8.19092 21.0013 8.28858 20.9001 8.4085 20.8324C8.65865 20.7234 8.91956 20.6233 9.17173 20.5264C9.47029 20.4121 9.77692 20.2938 10.0755 20.1579C10.6302 19.9051 11.1433 19.9051 11.6893 20.1579C11.9583 20.283 12.2374 20.3939 12.507 20.5015C12.7424 20.5957 12.9858 20.6925 13.2192 20.7981C13.4115 20.8842 13.5554 20.9904 13.6159 21.0973C13.9293 21.6245 14.2413 22.1652 14.5432 22.6877C14.8727 23.2579 15.2156 23.8476 15.5572 24.4226C15.6588 24.5934 15.8935 24.781 16.1154 24.8005H16.1591C16.3944 24.8005 16.5524 24.6209 16.6298 24.2625C16.6674 24.0917 16.7165 23.9182 16.7643 23.7515C16.7865 23.6735 16.8086 23.5954 16.8315 23.5174L17.4831 21.1155L17.543 21.1303C17.6425 21.1552 17.7326 21.178 17.822 21.2016L18.5705 21.4033C19.2637 21.5916 19.9826 21.7866 20.6913 21.9594C20.8702 22.0031 21.2152 21.9594 21.3254 21.7866C21.4451 21.603 21.3772 21.2849 21.3174 21.1262C21.2399 20.9446 21.1444 20.7711 21.0323 20.6085ZM3.57162 17.7976C3.60276 17.7681 3.63952 17.745 3.67971 17.7299C3.7199 17.7148 3.76272 17.7079 3.80563 17.7096L3.85337 17.7163C4.18959 17.766 4.53859 17.8172 4.84522 17.9422C5.07251 18.0357 5.30988 18.2031 5.56945 18.4553C5.6731 18.5698 5.75818 18.6998 5.82161 18.8406C5.85456 18.9031 5.88886 18.9677 5.92517 19.0296C5.98166 19.125 6.03679 19.2246 6.09059 19.3207C6.20453 19.5371 6.33257 19.7458 6.47389 19.9454C6.62197 20.1359 6.7833 20.3156 6.95669 20.4834C7.01721 20.5446 7.07841 20.6071 7.14027 20.6717L5.84381 22.9317L5.70932 22.4382C5.5708 21.9264 5.44034 21.4423 5.31593 20.9588C5.18145 20.4323 5.10748 20.1418 4.90104 20.0221C4.82608 19.9806 4.74121 19.9604 4.6556 19.9636C4.47068 19.9636 4.22658 20.0308 3.88027 20.1263C3.3988 20.2608 2.92607 20.3872 2.42578 20.5224L1.9154 20.6569L2.12117 20.2978C2.59389 19.4761 3.08074 18.6254 3.57162 17.7976ZM4.19632 16.7009C3.95746 16.6709 3.72196 16.6184 3.49294 16.5442C2.88774 16.3539 2.76402 16.167 2.78217 15.432L2.81647 15.0958C2.84673 14.7999 2.88371 14.4664 2.91734 14.1335C3.00139 13.3676 2.77343 12.6864 2.24018 12.1095L2.03845 11.8963C1.81184 11.6535 1.57783 11.4027 1.36601 11.1438C0.932282 10.618 0.93094 10.2945 1.36063 9.75927C1.56968 9.49502 1.7966 9.24541 2.0398 9.01219C2.79831 8.29738 3.07065 7.40169 2.87161 6.274C2.81775 5.95414 2.78808 5.63068 2.78285 5.30636C2.76738 4.71327 2.93684 4.48867 3.50707 4.3441C3.81707 4.26542 4.13715 4.19885 4.44849 4.13429C4.6287 4.09731 4.80892 4.05965 4.98644 4.01998C5.69453 3.86263 6.24727 3.44033 6.62922 2.7652L6.73277 2.5823C6.93451 2.21985 7.14699 1.84261 7.38369 1.50034C7.6836 1.06325 7.89005 0.993987 8.38833 1.16411C8.79436 1.30809 9.1904 1.47882 9.57384 1.67517C10.4332 2.09881 11.2738 2.1015 12.1426 1.6819C12.5622 1.48016 12.9912 1.31272 13.468 1.13117C13.8714 0.976504 14.129 1.19841 14.2749 1.40821C14.5519 1.81257 14.8061 2.23216 15.0361 2.66501C15.4617 3.47194 16.1416 3.94803 17.1153 4.11412C17.5188 4.18136 17.8899 4.26273 18.2436 4.35754C18.8024 4.5075 18.9665 4.72739 18.945 5.29896C18.9309 5.67889 18.8878 6.06622 18.8462 6.44212C18.8341 6.55172 18.8219 6.66066 18.8105 6.77027C18.7662 7.13692 18.8044 7.50885 18.9224 7.85883C19.0404 8.2088 19.2351 8.52797 19.4924 8.79297L19.6504 8.96176C19.875 9.20182 20.107 9.44995 20.3228 9.70144C20.8104 10.2797 20.8104 10.6146 20.3228 11.1936C20.1244 11.4373 19.912 11.6692 19.6867 11.8882C18.9396 12.5916 18.6653 13.4759 18.8495 14.5908C18.9057 14.9694 18.9374 15.3512 18.9443 15.7339C18.9578 16.1374 18.7695 16.3922 18.3855 16.4924C17.8476 16.6323 17.3574 16.7466 16.8806 16.8421C16.0737 17.0028 15.494 17.4251 15.0986 18.1325L15.0146 18.2832C14.8128 18.6469 14.603 19.0228 14.3677 19.3712C14.0483 19.8452 13.8143 19.9185 13.2797 19.7128C12.9851 19.5991 12.6899 19.4673 12.4055 19.3402C12.2374 19.2649 12.0632 19.1869 11.8904 19.1136C11.5762 18.972 11.236 18.8975 10.8914 18.8949C10.5469 18.8922 10.2055 18.9614 9.88922 19.0982C9.71236 19.1728 9.53686 19.2501 9.36135 19.3275C9.04799 19.466 8.72321 19.6085 8.39909 19.7309C7.93914 19.9064 7.70916 19.8365 7.41396 19.4324C7.21632 19.1776 7.04783 18.9015 6.91165 18.6093C6.41673 17.4776 5.52978 16.8515 4.197 16.7009H4.19632ZM15.8666 18.92L15.9567 18.7458C16.2761 18.1292 16.7972 17.9187 17.4811 17.7916L17.5329 17.7822C17.8113 17.7304 17.9646 17.7015 18.054 17.7439C18.1434 17.7862 18.2221 17.9153 18.3761 18.1816C18.7238 18.7828 19.0707 19.3839 19.4318 20.0107L19.8098 20.6649L19.4628 20.5735L18.1374 20.2218L17.7877 20.1263C17.6432 20.0873 17.4992 20.0476 17.3547 20.0093C16.8893 19.8876 16.6822 20.0046 16.5545 20.4578C16.3857 21.0691 16.2182 21.679 16.0461 22.3245C15.9923 22.5263 15.9372 22.728 15.8814 22.9297L14.5667 20.6569C15.2049 20.2124 15.5411 19.5547 15.8672 18.9173L15.8666 18.92Z" fill="#1D1D1B"/>
<path d="M10.8765 17.1547C14.5655 17.1547 17.574 14.1529 17.5875 10.4525C17.5838 8.67203 16.8756 6.96543 15.6176 5.70547C14.3597 4.44551 12.6542 3.7346 10.8738 3.72803H10.8597C9.08106 3.73139 7.37603 4.43852 6.11708 5.69495C4.85813 6.95138 4.14758 8.65499 4.14065 10.4336C4.12989 14.1321 7.1411 17.1439 10.8543 17.158L10.8765 17.1547ZM10.8637 16.0882H10.8584C7.73688 16.0882 5.19707 13.5524 5.19639 10.4397C5.20083 8.93982 5.7988 7.5027 6.85961 6.44239C7.92043 5.38208 9.35782 4.7848 10.8577 4.78107H10.8873C14.0141 4.79721 16.5459 7.34106 16.5318 10.4525C16.5215 11.9496 15.92 13.3819 14.8583 14.4375C13.7967 15.4932 12.3609 16.0865 10.8637 16.0882Z" fill="#1D1D1B"/>
<path d="M14.9939 7.92103C14.9266 7.76637 14.6973 7.64331 14.544 7.64062C14.3799 7.64062 14.197 7.75629 14.082 7.86724C13.5562 8.37829 13.031 8.90683 12.5233 9.41856L12.3532 9.58936C11.787 10.1596 11.2215 10.7325 10.6432 11.3155L9.95391 12.0122L7.80747 9.85431C7.74023 9.78706 7.67298 9.71982 7.60574 9.65257C7.3455 9.40444 7.07383 9.38763 6.83915 9.6055C6.78548 9.65003 6.74155 9.70513 6.71008 9.76737C6.67862 9.82961 6.66029 9.89765 6.65625 9.96728C6.65625 10.1112 6.72349 10.2564 6.86538 10.3983C7.72207 11.2577 8.57988 12.1162 9.43882 12.9738C9.63517 13.1694 9.79387 13.2676 9.95256 13.2676C10.1113 13.2676 10.2713 13.1688 10.4703 12.9697C11.7368 11.7024 13.0021 10.4342 14.2663 9.16505C14.3228 9.10857 14.3806 9.05208 14.4384 8.99627C14.6173 8.8328 14.7835 8.65588 14.9354 8.46706C14.9861 8.38651 15.0177 8.29545 15.0278 8.20082C15.038 8.10619 15.0263 8.01049 14.9939 7.92103Z" fill="#1D1D1B"/>
</svg>
